<mxfile host="app.diagrams.net" modified="2021-08-19T12:49:53.663Z" agent="5.0 (Windows NT 10.0; Win64; x64) AppleWebKit/537.36 (KHTML, like Gecko) Chrome/92.0.4515.159 Safari/537.36" etag="qA7RYcXY0CApwsjhMvNn" version="14.9.7" type="github">
  <diagram id="Bo-OR1HXUCktrjE6bs-e" name="Page-1">
    <mxGraphModel dx="1117" dy="689" grid="0" gridSize="10" guides="1" tooltips="1" connect="1" arrows="1" fold="1" page="0" pageScale="1" pageWidth="827" pageHeight="1169" background="#ffffff" math="0" shadow="0">
      <root>
        <mxCell id="0" />
        <mxCell id="1" parent="0" />
        <mxCell id="4NdRr_xCc0PAa4JqdeeV-1" value="" style="shape=ext;double=1;rounded=0;whiteSpace=wrap;html=1;fillColor=#f5f5f5;strokeColor=#666666;fontColor=#333333;" vertex="1" parent="1">
          <mxGeometry x="110" y="60" width="590" height="170" as="geometry" />
        </mxCell>
        <UserObject label="&lt;font style=&quot;font-size: 30px&quot;&gt;driver&lt;/font&gt;" placeholders="1" name="Variable" id="4NdRr_xCc0PAa4JqdeeV-2">
          <mxCell style="text;html=1;strokeColor=none;fillColor=none;align=center;verticalAlign=middle;whiteSpace=wrap;overflow=hidden;" vertex="1" parent="1">
            <mxGeometry x="110" y="70" width="110" height="40" as="geometry" />
          </mxCell>
        </UserObject>
        <mxCell id="4NdRr_xCc0PAa4JqdeeV-10" value="&lt;font style=&quot;font-size: 20px&quot;&gt;clientThread&lt;/font&gt;" style="rounded=1;whiteSpace=wrap;html=1;fillColor=#d5e8d4;strokeColor=#82b366;" vertex="1" parent="1">
          <mxGeometry x="270" y="115" width="170" height="85" as="geometry" />
        </mxCell>
        <mxCell id="4NdRr_xCc0PAa4JqdeeV-11" value="&lt;font style=&quot;font-size: 20px&quot;&gt;statusThread&lt;/font&gt;" style="rounded=1;whiteSpace=wrap;html=1;fillColor=#d5e8d4;strokeColor=#82b366;" vertex="1" parent="1">
          <mxGeometry x="470" y="115" width="170" height="85" as="geometry" />
        </mxCell>
        <mxCell id="4NdRr_xCc0PAa4JqdeeV-12" value="&lt;span style=&quot;color: rgba(0 , 0 , 0 , 0) ; font-family: monospace ; font-size: 0px&quot;&gt;%3CmxGraphModel%3E%3Croot%3E%3CmxCell%20id%3D%220%22%2F%3E%3CmxCell%20id%3D%221%22%20parent%3D%220%22%2F%3E%3CmxCell%20id%3D%222%22%20value%3D%22%26lt%3Bfont%20style%3D%26quot%3Bfont-size%3A%2020px%26quot%3B%26gt%3BclientThread%26lt%3B%2Ffont%26gt%3B%22%20style%3D%22rounded%3D1%3BwhiteSpace%3Dwrap%3Bhtml%3D1%3BfillColor%3D%23d5e8d4%3BstrokeColor%3D%2382b366%3B%22%20vertex%3D%221%22%20parent%3D%221%22%3E%3CmxGeometry%20x%3D%22270%22%20y%3D%22115%22%20width%3D%22170%22%20height%3D%2285%22%20as%3D%22geometry%22%2F%3E%3C%2FmxCell%3E%3C%2Froot%3E%3C%2FmxGraphModel%3E&lt;/span&gt;" style="shape=ext;double=1;rounded=0;whiteSpace=wrap;html=1;fillColor=#f5f5f5;strokeColor=#666666;fontColor=#333333;" vertex="1" parent="1">
          <mxGeometry x="110" y="280" width="590" height="170" as="geometry" />
        </mxCell>
        <UserObject label="&lt;font style=&quot;font-size: 24px&quot;&gt;js-server&lt;/font&gt;" placeholders="1" name="Variable" id="4NdRr_xCc0PAa4JqdeeV-13">
          <mxCell style="text;html=1;strokeColor=none;fillColor=none;align=center;verticalAlign=middle;whiteSpace=wrap;overflow=hidden;" vertex="1" parent="1">
            <mxGeometry x="110" y="280" width="110" height="40" as="geometry" />
          </mxCell>
        </UserObject>
        <mxCell id="4NdRr_xCc0PAa4JqdeeV-14" value="&lt;font style=&quot;font-size: 20px&quot;&gt;express&lt;/font&gt;&lt;span style=&quot;color: rgba(0 , 0 , 0 , 0) ; font-family: monospace ; font-size: 0px&quot;&gt;%3CmxGraphModel%3E%3Croot%3E%3CmxCell%20id%3D%220%22%2F%3E%3CmxCell%20id%3D%221%22%20parent%3D%220%22%2F%3E%3CmxCell%20id%3D%222%22%20value%3D%22%26lt%3Bfont%20style%3D%26quot%3Bfont-size%3A%2020px%26quot%3B%26gt%3BclientThread%26lt%3B%2Ffont%26gt%3B%22%20style%3D%22rounded%3D1%3BwhiteSpace%3Dwrap%3Bhtml%3D1%3BfillColor%3D%23d5e8d4%3BstrokeColor%3D%2382b366%3B%22%20vertex%3D%221%22%20parent%3D%221%22%3E%3CmxGeometry%20x%3D%22270%22%20y%3D%22115%22%20width%3D%22170%22%20height%3D%2285%22%20as%3D%22geometry%22%2F%3E%3C%2FmxCell%3E%3C%2Froot%3E%3C%2FmxGraphModel%3E&lt;/span&gt;" style="rounded=1;whiteSpace=wrap;html=1;fillColor=#ffe6cc;strokeColor=#d79b00;" vertex="1" parent="1">
          <mxGeometry x="500" y="320" width="170" height="85" as="geometry" />
        </mxCell>
        <mxCell id="4NdRr_xCc0PAa4JqdeeV-15" value="&lt;font style=&quot;font-size: 20px&quot;&gt;fabric-SDK&lt;br&gt;&lt;/font&gt;" style="rounded=1;whiteSpace=wrap;html=1;fillColor=#f8cecc;strokeColor=#b85450;" vertex="1" parent="1">
          <mxGeometry x="200" y="320" width="170" height="85" as="geometry" />
        </mxCell>
        <mxCell id="4NdRr_xCc0PAa4JqdeeV-16" value="" style="shape=flexArrow;endArrow=none;startArrow=block;html=1;fillColor=#dae8fc;strokeColor=#6c8ebf;startFill=0;endFill=0;" edge="1" parent="1" source="4NdRr_xCc0PAa4JqdeeV-14">
          <mxGeometry width="100" height="100" relative="1" as="geometry">
            <mxPoint x="420" y="340" as="sourcePoint" />
            <mxPoint x="360" y="200" as="targetPoint" />
          </mxGeometry>
        </mxCell>
        <mxCell id="4NdRr_xCc0PAa4JqdeeV-17" value="" style="shape=flexArrow;endArrow=none;startArrow=classic;html=1;entryX=0.5;entryY=1;entryDx=0;entryDy=0;fillColor=#dae8fc;strokeColor=#6c8ebf;endFill=0;" edge="1" parent="1" source="4NdRr_xCc0PAa4JqdeeV-14" target="4NdRr_xCc0PAa4JqdeeV-11">
          <mxGeometry width="100" height="100" relative="1" as="geometry">
            <mxPoint x="420" y="340" as="sourcePoint" />
            <mxPoint x="550" y="230" as="targetPoint" />
          </mxGeometry>
        </mxCell>
        <mxCell id="4NdRr_xCc0PAa4JqdeeV-19" value="" style="shape=flexArrow;endArrow=none;startArrow=classic;html=1;entryX=0;entryY=0.5;entryDx=0;entryDy=0;fillColor=#dae8fc;strokeColor=#6c8ebf;endFill=0;" edge="1" parent="1" target="4NdRr_xCc0PAa4JqdeeV-14">
          <mxGeometry width="100" height="100" relative="1" as="geometry">
            <mxPoint x="370" y="365" as="sourcePoint" />
            <mxPoint x="520" y="240" as="targetPoint" />
          </mxGeometry>
        </mxCell>
        <mxCell id="4NdRr_xCc0PAa4JqdeeV-21" value="&lt;span style=&quot;color: rgba(0 , 0 , 0 , 0) ; font-family: monospace ; font-size: 0px&quot;&gt;%3CmxGraphModel%3E%3Croot%3E%3CmxCell%20id%3D%220%22%2F%3E%3CmxCell%20id%3D%221%22%20parent%3D%220%22%2F%3E%3CmxCell%20id%3D%222%22%20value%3D%22%26lt%3Bfont%20style%3D%26quot%3Bfont-size%3A%2020px%26quot%3B%26gt%3BclientThread%26lt%3B%2Ffont%26gt%3B%22%20style%3D%22rounded%3D1%3BwhiteSpace%3Dwrap%3Bhtml%3D1%3BfillColor%3D%23d5e8d4%3BstrokeColor%3D%2382b366%3B%22%20vertex%3D%221%22%20parent%3D%221%22%3E%3CmxGeometry%20x%3D%22270%22%20y%3D%22115%22%20width%3D%22170%22%20height%3D%2285%22%20as%3D%22geometry%22%2F%3E%3C%2FmxCell%3E%3C%2Froot%3E%3C%2FmxGraphModel%3E&lt;/span&gt;" style="shape=ext;double=1;rounded=0;whiteSpace=wrap;html=1;fillColor=#f5f5f5;strokeColor=#666666;fontColor=#333333;" vertex="1" parent="1">
          <mxGeometry x="110" y="500" width="590" height="170" as="geometry" />
        </mxCell>
        <UserObject label="&lt;font style=&quot;font-size: 30px&quot;&gt;fabric-network&lt;/font&gt;" placeholders="1" name="Variable" id="4NdRr_xCc0PAa4JqdeeV-22">
          <mxCell style="text;html=1;strokeColor=none;fillColor=none;align=center;verticalAlign=middle;whiteSpace=wrap;overflow=hidden;" vertex="1" parent="1">
            <mxGeometry x="450" y="585" width="220" height="75" as="geometry" />
          </mxCell>
        </UserObject>
        <mxCell id="4NdRr_xCc0PAa4JqdeeV-23" value="&lt;font style=&quot;font-size: 20px&quot;&gt;chain code&lt;br&gt;&lt;/font&gt;" style="rounded=1;whiteSpace=wrap;html=1;fillColor=#e1d5e7;strokeColor=#9673a6;" vertex="1" parent="1">
          <mxGeometry x="200" y="542" width="170" height="85" as="geometry" />
        </mxCell>
        <mxCell id="4NdRr_xCc0PAa4JqdeeV-24" value="" style="shape=flexArrow;endArrow=classic;html=1;exitX=0.5;exitY=1;exitDx=0;exitDy=0;fillColor=#dae8fc;strokeColor=#6c8ebf;" edge="1" parent="1" source="4NdRr_xCc0PAa4JqdeeV-15" target="4NdRr_xCc0PAa4JqdeeV-23">
          <mxGeometry width="50" height="50" relative="1" as="geometry">
            <mxPoint x="440" y="450" as="sourcePoint" />
            <mxPoint x="490" y="400" as="targetPoint" />
          </mxGeometry>
        </mxCell>
      </root>
    </mxGraphModel>
  </diagram>
</mxfile>
